<svg width="150" height="106" xmlns="http://www.w3.org/2000/svg" viewBox="0 0 150 106"><g id="Devise_Républicaine" data-name="Devise Républicaine" class="devise" fill="#071e4f"><path d="M45.57,100.8c.38,0,.71.28.54,1l-1.77.41c.3-.82.81-1.42,1.22-1.42Zm1,2.83h-.35a2.09,2.09,0,0,1-1.38.93c-.47,0-.73-.28-.73-.93a4.13,4.13,0,0,1,.08-.78l2.84-.93c.55-1.31-.11-1.88-.89-1.88-1.34,0-2.87,2.24-2.87,4.2,0,.88.42,1.36,1.07,1.36s1.57-.74,2.22-2ZM46,99.51l2-1.86v-.22H46.88l-1.23,2.08Zm-6.12,1.31h.94l-1.48,4.09a.47.47,0,0,0,.22.64.41.41,0,0,0,.19,0,3.48,3.48,0,0,0,2.71-2h-.27a3.65,3.65,0,0,1-1.73,1l1.37-3.84H43.2l.17-.58H42l.52-1.48H42l-1,1.48-1.16.16Zm-1.27-.19a.34.34,0,0,0,0-.2.41.41,0,0,0,0-.19.86.86,0,0,0-.13-.14.44.44,0,0,0-.19-.07,2.63,2.63,0,0,0-2.18,1.77h.29a2.1,2.1,0,0,1,1.14-.87L35.9,105a.67.67,0,0,0,0,.2.33.33,0,0,0,.06.19.4.4,0,0,0,.14.15.6.6,0,0,0,.19.06,2.59,2.59,0,0,0,2.08-1.77H38.1a2.1,2.1,0,0,1-1.14.87Zm.28-2a.57.57,0,0,0,.26,0,.54.54,0,0,0,.22-.15.62.62,0,0,0,.15-.21.75.75,0,0,0,0-.26.68.68,0,0,0-1.16-.48.71.71,0,0,0-.19.48.57.57,0,0,0,0,.26.6.6,0,0,0,.36.36.62.62,0,0,0,.27,0Zm-9,6.26c-.21.47,0,.76.46.76.28,0,.4-.07.51-.37L32,102.41a3.91,3.91,0,0,1,1.94-1.27c.3,0,.26.25.07.62L32.31,105a.46.46,0,0,0,.4.69,2.65,2.65,0,0,0,2.19-1.77h-.27a2.1,2.1,0,0,1-1.14.87l1.44-2.89a2.5,2.5,0,0,0,.28-1,.76.76,0,0,0,0-.3.63.63,0,0,0-.16-.26.56.56,0,0,0-.26-.17.76.76,0,0,0-.3,0c-.71,0-1.43.79-2.28,1.78v-.76c0-.54-.17-1-.66-1-.31,0-.61.26-.89.64v.1c.53,0,.77.77.39,1.61Zm0-3.56c.19-.66.09-1.25-.42-1.25s-.76.46-1.37,1.78v-.75c0-.55-.18-1-.67-1s-1.11.89-1.49,1.77h.26c.28-.4.53-.63.74-.63s.38.38,0,1.22l-1.11,2.45c-.2.46,0,.76.47.76.27,0,.39-.07.51-.37l1.08-2.87c.31-.38.59-.71.94-1.08Zm-6.29-.49c.38,0,.71.29.53,1l-1.77.4c.31-.81.82-1.42,1.23-1.42Zm1,2.84h-.31a2.09,2.09,0,0,1-1.38.93c-.47,0-.73-.29-.73-.93a3.46,3.46,0,0,1,.09-.78L25.1,102c.55-1.31-.11-1.89-.88-1.89-1.34,0-2.88,2.25-2.88,4.2,0,.89.42,1.37,1.08,1.37s1.56-.75,2.21-2Zm-6.66-2.8h.94L17.39,105a.48.48,0,0,0,.2.64.5.5,0,0,0,.21.05,3.48,3.48,0,0,0,2.7-2h-.27a3.65,3.65,0,0,1-1.73,1l1.37-3.83h1.4l.17-.59H20l.52-1.47H20l-1,1.47-1.16.17ZM12.65,104c0-1.26,1.4-3,2.19-3a1.29,1.29,0,0,1,.48.06l-.82,2.18c-.47.57-1.2,1.27-1.55,1.27-.19,0-.31-.17-.31-.55ZM17,99.8h-.43l-.48.47h-.1c-2.34,0-4.36,2.62-4.36,4.53a.92.92,0,0,0,0,.33.75.75,0,0,0,.18.28.79.79,0,0,0,.29.18.91.91,0,0,0,.33,0c.61,0,1.2-.86,1.86-1.78v.32c-.08.94.21,1.46.7,1.46s1.11-.89,1.5-1.77h-.27c-.26.38-.52.6-.73.6s-.36-.39,0-1.21Zm-5,1.49c.2-.67.09-1.25-.42-1.25s-.76.46-1.37,1.78v-.76c0-.54-.18-1-.67-1s-1.1.88-1.49,1.77h.26c.28-.4.54-.64.74-.64s.38.38,0,1.22l-1.1,2.46c-.21.46,0,.75.46.75h.18a.35.35,0,0,0,.16-.08.37.37,0,0,0,.12-.13.36.36,0,0,0,.07-.17L10,102.37c.31-.38.59-.71.93-1.08ZM4.13,105.4l.11-.31c-1.37-.26-1.55-.26-1-1.74l.56-1.53H5.3c.68,0,.69.28.58,1h.39l.91-2.47H6.79c-.34.58-.61,1-1.35,1H4l.79-2.16c.24-.68.39-.83,1.31-.83h.66c1,0,1.07.26,1.07,1.22h.38l.31-1.68H2.82l-.11.32c1.1.22,1.2.33.69,1.74l-1.22,3.36c-.51,1.4-.73,1.51-2,1.74l-.09.31Z"/><path d="M31.86,88c.37,0,.7.28.53,1l-1.77.41c.31-.82.82-1.42,1.23-1.42Zm1,2.83h-.34a2.17,2.17,0,0,1-1.39.93c-.47,0-.73-.29-.73-.93a5.18,5.18,0,0,1,.09-.78l2.83-.93c.56-1.31-.11-1.88-.88-1.88-1.34,0-2.88,2.24-2.88,4.2,0,.88.42,1.36,1.08,1.36s1.57-.75,2.21-2Zm-.57-4.12,2-1.87v-.22H33.16L31.93,86.7ZM26.12,88h.94l-1.49,4.08a.47.47,0,0,0,.41.7,3.48,3.48,0,0,0,2.7-2h-.27a3.65,3.65,0,0,1-1.73,1L28.05,88h1.43l.18-.58H28.29L28.82,86h-.55l-1,1.47-1.16.16Zm-1.27-.2a.61.61,0,0,0,0-.19.42.42,0,0,0-.06-.19.47.47,0,0,0-.13-.15.6.6,0,0,0-.19-.06A2.62,2.62,0,0,0,22.33,89h.29a2.1,2.1,0,0,1,1.14-.87l-1.58,4.08a.34.34,0,0,0,0,.2.41.41,0,0,0,.05.19.32.32,0,0,0,.14.14.33.33,0,0,0,.19.06A2.57,2.57,0,0,0,24.64,91h-.27a2,2,0,0,1-1.14.87Zm.29-2a.63.63,0,0,0,.37-.12.67.67,0,0,0,.25-.3.65.65,0,0,0,0-.39.78.78,0,0,0-.18-.35.69.69,0,0,0-.35-.18.53.53,0,0,0-.39,0,.65.65,0,0,0-.37.88.54.54,0,0,0,.15.22.86.86,0,0,0,.22.15.79.79,0,0,0,.3.08Zm-5.43,6.12,2.85-7.48-.09-.11-1.79.21v.22L21,85c.31.25.22.48-.07,1.24l-2.24,5.87a.46.46,0,0,0-.06.23.62.62,0,0,0,.07.23.47.47,0,0,0,.4.23A2.53,2.53,0,0,0,21.18,91h-.27a2.26,2.26,0,0,1-1.23.87Zm-5.43-.69c0-1.26,1.4-3,2.19-3a2,2,0,0,1,.48.06l-.82,2.18c-.47.58-1.2,1.27-1.54,1.27-.19,0-.31-.14-.31-.52ZM18.59,87h-.43l-.48.46h-.11c-2.33,0-4.35,2.62-4.35,4.53a.91.91,0,0,0,0,.33.67.67,0,0,0,.19.28.75.75,0,0,0,.28.18.62.62,0,0,0,.33,0c.61,0,1.2-.86,1.87-1.77v.32c-.09.94.2,1.45.69,1.45s1.11-.88,1.5-1.76h-.27c-.28.4-.53.63-.74.63s-.37-.39,0-1.22ZM8.16,93.81c0-.54.52-.89,1.27-1.18a7.44,7.44,0,0,0,1.11.42c.78.26,1.07.36,1.07.6,0,.49-.85.88-2,.88-1,0-1.44-.21-1.44-.72Zm2.12-3.31c-.34,0-.47-.29-.47-.62,0-.91.49-2.25,1.26-2.25.34,0,.47.29.47.62C11.54,89.16,11.05,90.5,10.28,90.5Zm2.21,2.8c0-.66-.58-.88-1.53-1.18s-1.19-.31-1.19-.58a.83.83,0,0,1,.52-.66,2.41,2.41,0,0,0,2.21-2.29,1.38,1.38,0,0,0-.11-.57h1.14l.17-.58H11.91a1.44,1.44,0,0,0-.73-.21,2.41,2.41,0,0,0-1.62.67,2.31,2.31,0,0,0-.72,1.6,1.27,1.27,0,0,0,.28.88,1.36,1.36,0,0,0,.8.48c-.66.29-1,.64-1,1a.56.56,0,0,0,.06.31.72.72,0,0,0,.21.25c-1.53.44-2.14,1-2.14,1.68s.93,1,2,1c1.88,0,3.44-1,3.44-1.86ZM5.34,88.93c.68,0,.69.27.59,1h.39l.9-2.47H6.83c-.34.59-.61,1-1.34,1H4l.75-2.06c.24-.69.39-.82,1.31-.82h.66c1,0,1.07.26,1.07,1.21h.38l.31-1.68H2.82l-.11.32c1.1.22,1.2.32.69,1.74L2.18,90.55c-.51,1.4-.73,1.52-2,1.74l-.09.32h6.3l1.12-1.78H7.08a4.08,4.08,0,0,1-2.87,1.33c-1.67,0-1.52-.07-1-1.6l.6-1.63Zm.82-4.29,2-1.37v-.22H7L5.84,84.63Z"/><path d="M31.19,75.21c.38,0,.71.29.53,1l-1.77.4c.31-.81.82-1.42,1.23-1.42Zm1,2.84h-.35a2.14,2.14,0,0,1-1.39.93c-.47,0-.72-.29-.72-.93a4.13,4.13,0,0,1,.08-.78l2.84-.93c.55-1.31-.12-1.88-.89-1.88-1.34,0-2.87,2.24-2.87,4.19,0,.89.42,1.37,1.07,1.37s1.57-.75,2.22-2Zm-.57-4.12,2-1.87v-.22H32.51l-1.23,2.08Zm-5.87,1.31h.75L25,79.33a.48.48,0,0,0,.2.64.5.5,0,0,0,.21,0,3.5,3.5,0,0,0,2.71-2h-.27a3.78,3.78,0,0,1-1.73,1l1.37-3.84H28.9l.17-.58H27.68l.52-1.48h-.54l-1,1.48-1,.16ZM25,75.7c.2-.66.09-1.24-.42-1.24s-.76.46-1.37,1.78v-.76c0-.54-.18-1-.66-1s-1.11.88-1.5,1.76h.27c.27-.39.53-.63.73-.63s.38.38,0,1.22L21,79.28c-.21.46,0,.76.46.76a.42.42,0,0,0,.33-.08.47.47,0,0,0,.18-.29L23,76.78c.3-.38.58-.71.93-1.08Zm-6.29-.49c.38,0,.71.29.54,1l-1.77.4c.3-.81.81-1.42,1.22-1.42Zm1,2.84h-.33A2.14,2.14,0,0,1,18,79c-.47,0-.72-.29-.72-.93a3.44,3.44,0,0,1,.08-.78l2.84-.93c.55-1.31-.12-1.88-.89-1.88-1.34,0-2.87,2.24-2.87,4.19,0,.89.42,1.37,1.07,1.37s1.57-.75,2.21-2Zm-7,1.14c-.28,0-.68-.26-.68-.48a5.71,5.71,0,0,1,.28-.79l.46-1.22c.49-.58,1.24-1.21,1.66-1.21.26,0,.44.17.44.55,0,1.1-1,3.15-2.17,3.15ZM16,75.58c0-.82-.31-1.13-.89-1.13s-1.39.76-2.07,1.68l1.71-4.49-.07-.11-1.79.21V72l.35.27c.32.24.22.5-.07,1.23L11.3,78.25a5.22,5.22,0,0,0-.29.87c0,.49.66,1,1.27,1C13.62,80,16,77.53,16,75.6Zm-5.56-.52a.61.61,0,0,0,0-.19.41.41,0,0,0-.05-.19.5.5,0,0,0-.14-.15.33.33,0,0,0-.19-.06,2.64,2.64,0,0,0-2.18,1.76h.27a2.15,2.15,0,0,1,1.14-.87L7.69,79.44a.61.61,0,0,0,0,.19.61.61,0,0,0,0,.19.32.32,0,0,0,.14.14A.33.33,0,0,0,8,80a2.57,2.57,0,0,0,2.08-1.77H9.84a2,2,0,0,1-1.14.87Zm.29-2A.58.58,0,0,0,11,73a.67.67,0,0,0,.37-.37.75.75,0,0,0,.05-.26.67.67,0,0,0-.68-.68h0a.6.6,0,0,0-.47.2.54.54,0,0,0-.15.22.57.57,0,0,0,0,.26.57.57,0,0,0,0,.26.58.58,0,0,0,.36.36.57.57,0,0,0,.26,0Zm-4.13-.67H2.8l-.1.32c1.1.22,1.2.32.69,1.74L2.18,77.76c-.51,1.4-.73,1.52-2,1.74l-.09.32H5.77L7,77.63H6.57A4,4,0,0,1,3.8,79.36c-1,0-1.07-.17-.56-1.6l1.21-3.35c.5-1.41.73-1.52,2-1.74Z"/></g><g id="Ministère" data-name="Ministère" class="ministere" fill="#071e4f"><path d="M.09,28.17H3.67L7,33.92l3.37-5.75H14v14H11.15v-10L8,37.34H6L2.92,32.19v10H.09Z"/><path d="M17.88,28.17h2.83v14H17.88Z"/><path d="M24.63,28.17h3.63l6.25,10v-10h2.83v14H33.71l-6.25-10v10H24.63Z"/><path d="M41.26,28.17h2.83v14H41.26Z"/><path d="M48.8,38.3A4,4,0,0,0,51.9,40c1.14,0,1.8-.6,1.8-1.62,0-2.49-6.39-1.93-6.39-6.58a4.19,4.19,0,0,1,4.3-4.06h.17a6.21,6.21,0,0,1,4.89,2.35L54.59,32a3.72,3.72,0,0,0-2.8-1.73,1.48,1.48,0,0,0-1.6,1.34.41.41,0,0,0,0,.11c0,2.5,6.38,1.92,6.38,6.65,0,2.59-2.07,4.18-4.63,4.18a6.33,6.33,0,0,1-5.19-2.33Z"/><path d="M58,28.17H69.47v2.57H65.15v11.4H62.32V30.74H58Z"/><path d="M72,28.17h8.14v2.41H74.78v3.23h4.51v2.42h-4.5v3.48H80.1v2.43H72Zm.24-3.89h2.92L77.37,27h-2.6Z"/><path d="M83.4,28.17h4.27c3.07,0,5,1.58,5,4.17A3.81,3.81,0,0,1,90.4,36l4.39,6.19H91.4l-3.71-5.65H86.23v5.65H83.4Zm2.83,2.41v3.49h1.6a1.75,1.75,0,1,0,.37-3.48,2.29,2.29,0,0,0-.37,0Z"/><path d="M96.55,28.17h8.14v2.41H99.38v3.23h4.52v2.42H99.38v3.48h5.31v2.43H96.55Z"/><path d="M.09,48.3H5.57a7,7,0,0,1,0,14H.09Zm2.83,2.57v8.81h2.7A4.41,4.41,0,0,0,6,50.87H2.92Z"/><path d="M15.76,48.3H23.9v2.41H18.59v3.23H23.1v2.41H18.58v3.49h5.31v2.41H15.76Z"/><path d="M32.37,48.3h2.84V59.68h5.31v2.57H32.37Z"/><path d="M47.15,48.3h3.71l5.29,14h-3l-1.32-3.63H46.21L44.87,62.3h-3Zm3.77,7.91L49,51l-1.91,5.24Z"/><path d="M73.37,58.09l2.24,1.71a7.13,7.13,0,0,1-5.89,2.85,7.38,7.38,0,1,1,5.89-11.92l-2.24,1.74a4.23,4.23,0,0,0-1.58-1.42,4.68,4.68,0,0,0-3.56,8.66,4.82,4.82,0,0,0,1.49.34,4.28,4.28,0,0,0,2.07-.5A4.43,4.43,0,0,0,73.37,58.09Z"/><path d="M86.15,48.3H89v8.49c0,3.67-2.15,5.86-5.66,5.86s-5.65-2.19-5.65-5.86V48.3H80.5V57a2.83,2.83,0,0,0,5.65.34,1.93,1.93,0,0,0,0-.34Z"/><path d="M92.5,48.3h2.83V59.68h5.31v2.57H92.5Z"/><path d="M100.06,48.3h11.46v2.57h-4.31V62.25h-2.84V50.87h-4.31Z"/><path d="M122.26,48.3h2.84v8.49c0,3.67-2.16,5.86-5.67,5.86s-5.65-2.19-5.65-5.86V48.3h2.83V57a2.83,2.83,0,0,0,5.65.34,1.93,1.93,0,0,0,0-.34Z"/><path d="M128.61,48.3h4.27c3.08,0,5,1.57,5,4.17a3.78,3.78,0,0,1-2.23,3.6L140,62.26h-3.39l-3.72-5.65h-1.45v5.64H128.6Zm2.84,2.41V54.2H133a1.75,1.75,0,1,0,.37-3.48h-1.92Z"/><path d="M141.76,48.3h8.15v2.41H144.6v3.23h4.51v2.41H144.6v3.49h5.31v2.41h-8.15Z"/></g><g id="Marianne" data-name="Marianne" class="marianne"><path d="M21.19,16.72l.6-.62A11.42,11.42,0,0,1,23,14.9a3.57,3.57,0,0,1,.38-.3.17.17,0,0,1,.07-.14c-.18.07-.28.22-.46.28,0,0-.07,0,0-.07l.37-.28h0v-.07a1.43,1.43,0,0,0-1.12.53h-.17c-.53.18-.92.63-1.44.84v-.08a4.86,4.86,0,0,1-.63.25,4.41,4.41,0,0,1-.89,0,9.12,9.12,0,0,0-1.27.22h0a2.67,2.67,0,0,0-.66.26h0v.06a.75.75,0,0,1-.25.22,3.66,3.66,0,0,0-.58.46H16.3l-.57.54h-.11l.08-.15s.07-.11.11-.17l.15-.22h-.05a3.12,3.12,0,0,1,.59-.44h0l.06-.09h0l-.17.11c-.08.08-.15.22-.28.22H16v-.05h0l.05-.08h0v-.13a.69.69,0,0,1,.24-.21l.4-.22.06-.05a2.26,2.26,0,0,0-.56.28.06.06,0,0,0-.06,0H16c0-.07.14-.11.23-.18s.06,0,.06,0c1.13-.88,2.66-.66,4-1.12l.31-.22c.18-.07.32-.24.53-.35a1.55,1.55,0,0,0,.59-.81.09.09,0,0,0,0-.07,5.37,5.37,0,0,1-1.72.87,7,7,0,0,1-2.31.42c0-.07.1-.07.17-.07s.07-.14.14-.21h.11a.07.07,0,0,1,.07-.07h.14c-.11-.15-.32.1-.49,0,.07-.08,0-.18.1-.21h.14a.26.26,0,0,1,.07-.15c.53-.31,1-.56,1.51-.84-.11,0-.18.11-.28,0,.07,0,0-.11.07-.11.39-.1.7-.31,1.09-.45-.14,0-.25.1-.39,0,.07,0,.11-.11.22-.11v-.1h0c0-.07.14,0,.22-.11s-.1,0-.1,0a.66.66,0,0,1,.45-.21c0-.07-.14,0-.14-.07s0,0,.07,0h-.07c-.07,0,0-.1,0-.14a1.94,1.94,0,0,0,.31-.84H21a2.85,2.85,0,0,1-1.43.66h-.19a.81.81,0,0,1-.31.05,1,1,0,0,1-.29-.08,2,2,0,0,1-.35-.3,4.83,4.83,0,0,0-.89-.42,8,8,0,0,0-2.7-.38,5.94,5.94,0,0,1,1.23-.35,5.17,5.17,0,0,1,1.78-.35,1,1,0,0,0-.35,0,5.09,5.09,0,0,0-1.5.22c-.35.07-.67.21-1,.28s-.32.28-.56.24v-.1a2.12,2.12,0,0,1,1.33-.89,6.74,6.74,0,0,1,1.85.07A8.74,8.74,0,0,1,19,10c.18,0,.22.28.35.31a1.54,1.54,0,0,1,.63.14v-.21c0-.07.32,0,.46,0s-.25-.49-.39-.74V9.43a3.77,3.77,0,0,0,.84.7c.18.07.6.18.53,0A5.3,5.3,0,0,0,20.61,9V8.89c-.07,0-.07,0-.1-.07V8.68c-.15-.07-.11-.21-.18-.32s0-.42-.1-.63a2.41,2.41,0,0,1-.14-.59c-.09-.6-.23-1.13-.31-1.69s.39-1.19.7-1.78a3,3,0,0,1,1-1.12,2.89,2.89,0,0,1,.66-1.12,2.66,2.66,0,0,1,1.08-.7,8.26,8.26,0,0,1,.94-.36H.09V18.9h17a15.06,15.06,0,0,1,2.26-1.16A9.18,9.18,0,0,0,21.19,16.72ZM15.8,14.21h-.17a4.69,4.69,0,0,0,.42-.24c.14-.07.17-.11.24-.07a1,1,0,0,1,.25.14C16.32,14.21,16,14.1,15.8,14.21Zm-5.37-.77a.09.09,0,0,1,0-.07,11.42,11.42,0,0,0,1.12-1.79,5.13,5.13,0,0,0,1.18-1,6.86,6.86,0,0,1,2-1.55,1.42,1.42,0,0,1,.91,0c-.11.14-.28.1-.42.22H15.1V9.19c-.35.38-.85.56-1.13,1s-.34.79-.79.9c-.15,0,0-.1,0-.07A11.56,11.56,0,0,0,10.43,13.44Zm2.91-2.31a.76.76,0,0,1-.11.14.24.24,0,0,1-.14.14H13a.5.5,0,0,1,.1-.19.36.36,0,0,1,.18-.12S13.34,11.09,13.34,11.13ZM15,16.37a.31.31,0,0,1-.09.11s.08,0,0,.05a.8.8,0,0,1-.27.18h-.05a.8.8,0,0,1-.13.13c-.05,0-.24,0-.18-.05l.26-.24.15-.14.07-.08S15,16.31,15,16.37Zm-.63-.29a3.51,3.51,0,0,1-.4.27c-.14.08-.31.15-.46.22h0a1.31,1.31,0,0,0-.35.27h-.05v.05L13,17A.12.12,0,0,1,13,17H12.6l-.13.1a2.2,2.2,0,0,0-.2.23h0V17.3h0l.11-.13h0L12.5,17h0l.05-.08v-.07h0V16.6h0a1.33,1.33,0,0,1,.14-.19h0a.69.69,0,0,0-.13.11c-.05,0-.11,0-.07-.05l.08-.07.18-.18.11-.08h0A.93.93,0,0,1,13,16c.34-.33.9-.31,1.35-.52a1.51,1.51,0,0,1,.56,0,.48.48,0,0,1,.31.07,9.77,9.77,0,0,0-.88.53Zm.72-2.43a.17.17,0,0,0,.14-.07H15v-.07a3.82,3.82,0,0,0-.56.14c-.17,0-.46.25-.74.32s-.7.45-1.12.59v-.07c0-.07.17-.14.24-.24s0-.07,0-.07a5.75,5.75,0,0,1,1-.91v-.11c.11-.14.28-.21.35-.38a.66.66,0,0,1,.36-.32s-.11,0-.11-.1-.28.07-.42,0a.48.48,0,0,1,.22-.12h-.08a.22.22,0,0,1,.18-.18.78.78,0,0,0,.42-.14,1.45,1.45,0,0,1-.77-.07,1.84,1.84,0,0,1,.88-1h.11a.35.35,0,0,1-.08.22.34.34,0,0,1-.2.13,3,3,0,0,1,.84.21c0,.07-.11,0-.14,0,.17.11.38,0,.56.18-.11.1-.22,0-.32,0a9,9,0,0,1,3.16,1.26,9.79,9.79,0,0,1-2.42.73.66.66,0,0,1-.28,0v.1a.61.61,0,0,0-.35.07.39.39,0,0,1-.23.07.48.48,0,0,1-.23-.07Z" fill="#000091"/><path d="M51.12.37h-20a.66.66,0,0,1,.19.09l.5.27a1.54,1.54,0,0,1,.66.55c.07.11.18.32.11.46s-.11.45-.28.53a1.44,1.44,0,0,1-.74.07,2,2,0,0,1-.42-.07,2.85,2.85,0,0,1,1.37.94c0,.07.17.11.31.11s0,.07,0,.1-.14.11-.11.21h.11c.17-.07.14-.42.38-.31a.38.38,0,0,1,.18.23.37.37,0,0,1,0,.29,3.65,3.65,0,0,1-.43.35.36.36,0,0,0,0,.25,1.12,1.12,0,0,1,.18.42c.1.24.14.52.25.77a5.25,5.25,0,0,1,.24,1.57c0,.28-.14.53,0,.81a3.05,3.05,0,0,0,.38.74c.14.18.27.36.39.55.21.36.59.71.42,1.13-.11.24-.49.22-.74.35s0,.45.07.63-.21.52-.46.63c.08.1.23.07.25.14s.21.28.11.45-.57.32-.36.63a.87.87,0,0,1,0,.77.81.81,0,0,1-.25.35.89.89,0,0,1-.38.18,1.52,1.52,0,0,1-.67,0,.57.57,0,0,0-.22-.07,17.7,17.7,0,0,0-1.78-.24,2.19,2.19,0,0,0-.5.14,3.7,3.7,0,0,0-.42.37l-.08.09h0c-.1.13-.19.26-.28.4h0a3,3,0,0,0-.26.64,2.08,2.08,0,0,0,0,1.66c0,.05,1.16.39,1.93.73a6.46,6.46,0,0,1,.83.42H51.2Z" fill="#e1000f"/><path d="M32.35,7.13c.14,0,.35,0,.35.11-.07.28-.5.35-.71.63h-.1c-.11.07-.07.24-.18.24a.55.55,0,0,0-.31,0,.55.55,0,0,0,.23.17.76.76,0,0,0,.3,0l.07.05a.14.14,0,0,1,0,.09h.14v.14c-.11.14-.28.07-.42.1a1.59,1.59,0,0,0,.81,0c.22-.07,0-.42.14-.59-.07,0,0-.11-.07-.11a2.18,2.18,0,0,1,.21-.22h.12L33,7.66c0-.07-.14-.11-.11-.18.21-.14.39-.35.32-.56s-.32-.1-.49-.17a1.22,1.22,0,0,0-.6,0,3.18,3.18,0,0,0-.53.14,2.32,2.32,0,0,0-.66.35A6.77,6.77,0,0,1,31.72,7,2.68,2.68,0,0,1,32.35,7.13Z" fill="#9d9d9c"/></g></svg>